<svg width="73" height="88" viewBox="0 0 73 88" fill="none" xmlns="http://www.w3.org/2000/svg">
<path fill-rule="evenodd" clip-rule="evenodd" d="M69.1894 55.2074C64.5633 68.3181 55.7038 78.3559 45.5811 83.4376C46.4224 81.6374 46.9884 79.4107 47.2792 76.7573C45.4072 77.5253 43.3912 77.9093 41.2312 77.9093C38.8312 77.9093 36.5272 77.4533 34.3192 76.5413C32.1112 75.6773 29.4472 74.4053 26.3272 72.7253C24.3112 71.6213 22.5832 70.7333 21.1432 70.0613C19.7512 69.4373 18.3832 68.9573 17.0392 68.6213L28.1272 16.9253C26.8792 16.8293 25.9192 16.7813 25.2472 16.7813C21.3112 16.7813 17.3752 17.6933 13.4392 19.5173C11.0195 20.6091 8.86293 21.9186 6.96935 23.4457C16.8274 5.56919 35.1145 -4.00491 50.9909 1.59709C53.8739 2.61435 56.5047 4.07111 58.8587 5.89459C57.6258 5.66976 56.2835 5.55734 54.8318 5.55734C49.9838 5.55734 45.5438 6.80534 41.5118 9.30134C37.4798 11.7973 34.3118 15.2293 32.0078 19.5973C29.7038 23.9173 28.5518 28.7173 28.5518 33.9973C28.5518 37.6453 29.1038 40.8613 30.2078 43.6453C31.3598 46.3813 32.9918 48.4933 35.1038 49.9813C37.2158 51.4693 39.6638 52.2133 42.4478 52.2133C44.6558 52.2133 46.6718 51.7333 48.4958 50.7733C50.3678 49.8133 51.9518 48.4213 53.2478 46.5973H53.5358L49.9358 62.5093C49.3118 65.4373 48.3998 67.6453 47.1998 69.1333C45.9998 70.6213 44.5598 71.3653 42.8798 71.3653C41.5358 71.3653 40.4078 70.8853 39.4958 69.9253C38.6318 68.9653 38.1998 67.7173 38.1998 66.1813C38.1998 64.6453 38.6558 63.3973 39.5678 62.4373C40.4798 61.4773 41.6558 60.9973 43.0958 60.9973C43.9118 60.9973 44.6798 61.1653 45.3998 61.5013C46.1678 61.8373 46.7678 62.2933 47.1998 62.8693C47.7278 62.1973 47.9918 61.2853 47.9918 60.1333C47.9918 58.6453 47.4158 57.4453 46.2638 56.5333C45.1598 55.6213 43.6958 55.1653 41.8718 55.1653C40.0958 55.1653 38.4638 55.6213 36.9758 56.5333C35.4878 57.3973 34.3118 58.5973 33.4478 60.1333C32.5838 61.6693 32.1518 63.3493 32.1518 65.1733C32.1518 68.1013 33.2078 70.4533 35.3198 72.2293C37.4798 74.0533 40.3118 74.9653 43.8158 74.9653C48.2798 74.9653 51.9038 73.2853 54.6878 69.9253C57.5198 66.5653 59.7038 61.3093 61.2398 54.1573L66.4958 29.9653L57.9998 29.8933C56.7998 35.1253 55.1918 39.1093 53.1758 41.8453C51.2078 44.5813 48.9278 45.9493 46.3358 45.9493C44.1758 45.9493 42.5198 45.0133 41.3678 43.1413C40.2158 41.2213 39.6398 38.4613 39.6398 34.8613C39.6398 30.4933 40.4318 26.3173 42.0158 22.3333C43.5998 18.3493 45.6878 15.1333 48.2798 12.6853C50.8718 10.1893 53.5598 8.94134 56.3438 8.94134C57.8798 8.94134 59.0558 9.34934 59.8718 10.1653C60.7358 10.9333 61.1678 12.0373 61.1678 13.4773C61.1678 14.7733 60.8558 16.0693 60.2318 17.3653C59.6558 18.6133 58.9358 19.5253 58.0718 20.1013C58.5998 20.8213 59.2478 21.3733 60.0158 21.7573C60.8318 22.1413 61.6958 22.3333 62.6078 22.3333C64.2398 22.3333 65.5598 21.7093 66.5678 20.4613C67.2801 19.5795 67.7407 18.4939 67.9496 17.2047C73.1618 27.6639 73.9984 41.5784 69.1894 55.2074ZM21.3767 85.5256C25.6981 87.0504 30.1981 87.4509 34.6582 86.8656C34.2322 86.6653 33.8072 86.4399 33.3832 86.1893C31.3192 84.9893 28.6792 83.1173 25.4632 80.5733C23.0632 78.6533 20.9992 77.0933 19.2712 75.8933C17.5912 74.7413 15.7432 73.7573 13.7272 72.9413C11.7592 72.1253 9.74318 71.7173 7.67918 71.7173C6.95918 71.7173 6.40718 71.7413 6.02318 71.7893L16.7512 21.8933C13.5352 23.1893 11.0392 25.1813 9.26318 27.8693C7.53518 30.5093 6.67118 33.7493 6.67118 37.5893C6.67118 39.3653 6.83918 40.6133 7.17518 41.3333C7.51118 42.0053 7.67918 42.3893 7.67918 42.4853C5.08718 42.4853 3.14318 41.9573 1.84718 40.9013C1.52205 40.6137 1.23927 40.2789 0.998838 39.8968C-2.99736 60.3675 5.23946 79.8316 21.3767 85.5256Z" fill="#4F4F4F"/>
</svg>
